<?xml version="1.0" standalone="no"?>
<!DOCTYPE svg PUBLIC "-//W3C//DTD SVG 20010904//EN"
 "http://www.w3.org/TR/2001/REC-SVG-20010904/DTD/svg10.dtd">
<svg version="1.0" xmlns="http://www.w3.org/2000/svg"
 width="512.000000pt" height="512.000000pt" viewBox="0 0 512.000000 512.000000"
 preserveAspectRatio="xMidYMid meet">

<g transform="translate(0.000000,512.000000) scale(0.100000,-0.100000)"
fill="#894a70" stroke="none">
<path d="M1618 5105 c-34 -19 -48 -44 -48 -85 0 -70 28 -89 160 -106 163 -21
274 -68 391 -165 74 -62 189 -225 189 -268 0 -6 -28 -24 -62 -40 -121 -58
-228 -164 -298 -293 -56 -105 -80 -202 -81 -324 0 -110 2 -127 33 -222 11 -35
18 -65 17 -67 -2 -1 -56 -23 -119 -48 -352 -137 -744 -390 -1037 -671 -489
-467 -649 -988 -414 -1349 89 -137 240 -243 401 -283 98 -25 296 -15 415 20
117 35 266 109 385 190 l95 65 14 -47 c86 -288 178 -525 263 -682 141 -258
339 -460 496 -503 l42 -11 1 -56 c0 -80 17 -121 60 -144 40 -21 72 -18 110 13
21 17 25 30 29 101 l5 81 51 18 c130 44 283 177 394 343 138 205 290 564 360
846 8 29 15 40 23 35 7 -5 55 -37 107 -71 118 -80 249 -143 365 -178 131 -39
319 -45 430 -15 295 81 493 342 495 652 1 175 -77 402 -204 599 -264 408 -856
860 -1380 1056 -48 18 -90 35 -93 37 -2 3 5 36 18 74 30 93 37 272 15 366 -47
199 -191 385 -363 468 -35 16 -63 34 -63 40 0 5 12 33 26 61 104 204 297 339
530 368 126 16 133 18 160 45 16 17 24 35 24 60 0 97 -72 123 -250 91 -177
-32 -328 -108 -457 -230 -92 -86 -163 -186 -208 -289 l-29 -67 -51 0 -51 0
-29 67 c-43 100 -115 201 -199 281 -159 151 -344 233 -556 247 -66 4 -91 2
-112 -10z m1057 -800 c182 -46 310 -169 370 -354 24 -74 17 -233 -15 -313
l-22 -57 -83 6 c-51 4 -108 1 -146 -6 -70 -14 -164 -58 -193 -90 l-19 -21 -30
26 c-81 68 -198 100 -332 91 l-83 -6 -15 37 c-42 106 -51 236 -22 334 74 258
341 416 590 353z m-300 -941 c60 -31 85 -87 85 -190 0 -231 -133 -559 -373
-919 -248 -371 -541 -657 -812 -791 -149 -74 -247 -97 -384 -92 -98 3 -112 6
-184 40 -131 63 -219 171 -252 309 -80 340 196 789 730 1189 293 220 667 408
920 464 95 21 219 16 270 -10z m715 -7 c473 -135 1071 -546 1367 -941 320
-426 304 -842 -37 -1005 -75 -36 -75 -36 -210 -36 -126 0 -141 3 -228 33 -118
41 -262 123 -377 215 -471 377 -934 1137 -936 1537 -1 133 31 191 121 219 53
16 204 5 300 -22z m-476 -744 c25 -56 68 -142 95 -192 28 -50 51 -93 51 -96 0
-3 -88 -5 -195 -5 -107 0 -195 2 -195 5 0 2 24 48 53 102 30 54 73 142 97 196
23 54 44 96 46 94 2 -2 24 -49 48 -104z m359 -605 c46 -62 116 -151 157 -198
l73 -85 -316 -3 c-173 -1 -460 -1 -637 0 l-322 3 88 106 c49 58 118 147 154
197 l65 91 327 0 328 1 83 -112z m313 -505 c-3 -10 -21 -72 -40 -138 -19 -66
-50 -160 -68 -210 l-34 -90 -579 -3 -580 -2 -38 107 c-21 60 -52 155 -68 213
-16 58 -32 113 -35 123 -5 16 34 17 721 17 687 0 726 -1 721 -17z m-262 -690
c-63 -110 -150 -226 -214 -286 -172 -163 -318 -163 -489 -2 -69 65 -155 178
-210 278 l-32 57 486 0 486 0 -27 -47z"/>
<path d="M1840 3072 c-207 -95 -435 -238 -630 -395 -140 -113 -152 -127 -154
-177 -1 -35 4 -47 32 -71 46 -41 85 -39 144 9 175 140 227 179 343 256 72 48
203 123 291 167 89 44 170 89 180 100 28 31 25 93 -7 124 -44 44 -81 42 -199
-13z"/>
<path d="M818 2304 c-35 -18 -48 -43 -48 -89 0 -65 69 -110 131 -85 39 16 59
46 59 88 0 44 -14 68 -50 87 -36 19 -57 18 -92 -1z"/>
<path d="M3110 3108 c-14 -7 -33 -30 -43 -50 -16 -32 -16 -40 -4 -70 18 -44
26 -49 133 -95 192 -83 441 -241 643 -408 116 -96 146 -105 199 -60 61 51 48
110 -41 188 -183 159 -395 300 -632 418 -169 84 -214 98 -255 77z"/>
<path d="M4218 2304 c-35 -18 -48 -43 -48 -89 0 -65 69 -110 131 -85 39 16 59
46 59 88 0 44 -14 68 -50 87 -36 19 -57 18 -92 -1z"/>
</g>
</svg>
